# Blender v2.77 (sub 0) OBJ File: 'casa.blend'
# www.blender.org
mtllib casa.mtl
o Cube.002
v 1.233967 0.020000 0.120000
v 1.233967 0.420000 0.120000
v 1.233967 0.020000 -0.120000
v 1.233967 0.420000 -0.120000
v 1.293967 0.020000 0.120000
v 1.293967 0.420000 0.120000
v 1.293967 0.020000 -0.120000
v 1.293967 0.420000 -0.120000
vt 0.6250 0.5000
vt 0.7500 0.5000
vt 0.7500 0.6914
vt 0.6250 0.6914
vt 0.5312 0.3125
vt 0.5625 0.3125
vt 0.5625 0.5000
vt 0.5312 0.5000
vt 0.5000 0.5000
vt 0.6250 0.5000
vt 0.6250 0.6914
vt 0.5000 0.6914
vt 0.5000 0.3125
vt 0.5312 0.3125
vt 0.5312 0.5000
vt 0.5000 0.5000
vt 0.6250 0.4375
vt 0.6875 0.4375
vt 0.6875 0.4688
vt 0.6250 0.4688
vt 0.6250 0.4688
vt 0.6875 0.4688
vt 0.6875 0.5000
vn -1.0000 0.0000 0.0000
vn 0.0000 0.0000 -1.0000
vn 1.0000 0.0000 0.0000
vn 0.0000 0.0000 1.0000
vn 0.0000 -1.0000 0.0000
vn 0.0000 1.0000 0.0000
usemtl None
s off
f 2/1/1 4/2/1 3/3/1 1/4/1
f 4/5/2 8/6/2 7/7/2 3/8/2
f 8/9/3 6/10/3 5/11/3 7/12/3
f 6/13/4 2/14/4 1/15/4 5/16/4
f 1/17/5 3/18/5 7/19/5 5/20/5
f 6/21/6 8/22/6 4/23/6 2/1/6
o Cube.001
v -1.080444 1.300000 1.000000
v -0.580444 1.800000 0.500000
v -1.080444 1.300000 -1.000000
v -0.580444 1.800000 -0.500000
v 1.419556 1.300000 1.000000
v 0.919555 1.800000 0.500000
v 1.419556 1.300000 -1.000000
v 0.919555 1.800000 -0.500000
vt 1.0000 0.5000
vt 0.7500 0.5000
vt 0.7500 0.2500
vt 1.0000 0.2500
vt 1.0000 0.7500
vt 0.7500 0.7500
vt 0.7500 0.5000
vt 1.0000 0.5000
vt 1.0000 0.5000
vt 0.7500 0.5000
vt 0.7500 0.2520
vt 1.0000 0.2500
vt 1.0000 0.7520
vt 0.7500 0.7520
vt 0.7500 0.5000
vt 1.0000 0.5000
vt 0.5000 0.7500
vt 0.7500 0.7500
vt 0.7500 1.0000
vt 0.5020 1.0000
vt 1.0000 0.7500
vt 1.0000 1.0000
vt 0.7500 1.0000
vt 0.7500 0.7500
vn -0.7071 0.7071 0.0000
vn 0.0000 0.7071 -0.7071
vn 0.7071 0.7071 0.0000
vn 0.0000 0.7071 0.7071
vn 0.0000 -1.0000 0.0000
vn 0.0000 1.0000 0.0000
usemtl None
s off
f 10/24/7 12/25/7 11/26/7 9/27/7
f 12/28/8 16/29/8 15/30/8 11/31/8
f 16/32/9 14/33/9 13/34/9 15/35/9
f 14/36/10 10/37/10 9/38/10 13/39/10
f 9/40/11 11/41/11 15/42/11 13/43/11
f 14/44/12 16/45/12 12/46/12 10/47/12
o Cube
v 1.233474 0.006300 -0.800000
v 1.233474 0.006300 0.800000
v -0.866526 0.006300 0.800000
v -0.866526 0.006300 -0.800000
v 1.233474 1.306300 -0.800000
v 1.233474 1.306300 0.800000
v -0.866526 1.306300 0.800000
v -0.866526 1.306300 -0.800000
vt 0.0000 0.0000
vt 0.0000 0.0000
vt 0.0000 0.0000
vt 0.0000 0.0000
vt 0.5000 0.7500
vt 0.5000 1.0000
vt 0.2500 1.0000
vt 0.2500 0.7500
vt 0.2500 0.5000
vt 0.2500 0.7500
vt 0.0000 0.7500
vt 0.0000 0.5000
vt 0.5000 0.5000
vt 0.5000 0.7500
vt 0.2500 0.7500
vt 0.2500 0.5000
vt 0.0000 1.0000
vt 0.0000 0.7500
vt 0.2500 0.7500
vt 0.2500 1.0000
vt 0.0000 0.0000
vt 0.0000 0.0000
vt 0.0000 0.0000
vt 0.0000 0.0000
vn 0.0000 -1.0000 -0.0000
vn 1.0000 0.0000 0.0000
vn -0.0000 -0.0000 1.0000
vn -1.0000 -0.0000 -0.0000
vn 0.0000 0.0000 -1.0000
vn 0.0000 1.0000 0.0000
usemtl Material
s off
f 17/48/13 18/49/13 19/50/13 20/51/13
f 17/52/14 21/53/14 22/54/14 18/55/14
f 18/56/15 22/57/15 23/58/15 19/59/15
f 19/60/16 23/61/16 24/62/16 20/63/16
f 21/64/17 17/65/17 20/66/17 24/67/17
usemtl Material_NONE
f 21/68/18 24/69/18 23/70/18 22/71/18
